<?xml version="1.0" encoding="iso-8859-1"?>
<!-- Generator: Adobe Illustrator 21.0.0, SVG Export Plug-In . SVG Version: 6.00 Build 0)  -->
<svg xmlns="http://www.w3.org/2000/svg" xmlns:xlink="http://www.w3.org/1999/xlink" version="1.1" id="Capa_1" x="0px" y="0px" viewBox="0 0 512.001 512.001" style="enable-background:new 0 0 512.001 512.001;" xml:space="preserve" width="512" height="512">
<g>
	<g>
		<path d="M395.195,146.059L335.193,6.061C333.617,2.384,330.001,0,326.001,0H186c-4,0-7.616,2.384-9.191,6.061l-14.243,33.231    c-2.176,5.076,0.176,10.955,5.252,13.131c5.077,2.178,10.956-0.175,13.131-5.252L192.594,20h126.813l56.242,131.226    l-58.088,340.775H194.44l-58.088-340.775l13.083-30.525c2.176-5.077-0.176-10.955-5.252-13.131    c-5.077-2.176-10.955,0.177-13.131,5.252l-14.245,33.236c-0.759,1.77-0.99,3.722-0.667,5.62l60.002,352.003    c0.819,4.805,4.983,8.32,9.858,8.32h140.001c4.875,0,9.039-3.515,9.858-8.32l60.002-352.003    C396.185,149.78,395.953,147.829,395.195,146.059z"/>
		<path d="M276,80h-40c-5.523,0-10,4.477-10,10v30h-30c-5.523,0-10,4.477-10,10v40c0,5.523,4.477,10,10,10h30v70    c0,5.523,4.477,10,10,10h40c5.523,0,10-4.477,10-10v-70h30c5.523,0,10-4.477,10-10v-40c0-5.523-4.477-10-10-10h-30V90    C286,84.477,281.523,80,276,80z M306.001,139.999v20h-30c-5.523,0-10,4.477-10,10v70h-20v-70c0-5.523-4.477-10-10-10h-30v-20h30    c5.523,0,10-4.477,10-10v-30h20v30c0,5.523,4.477,10,10,10H306.001z"/>
		<path d="M152.061,89.192c1.284,0.55,2.62,0.811,3.934,0.811c3.88,0,7.571-2.271,9.196-6.063l0.003-0.007    c2.175-5.076-0.177-10.951-5.254-13.127c-5.075-2.176-10.957,0.179-13.132,5.256C144.634,81.138,146.985,87.016,152.061,89.192z"/>
		<path d="M219.766,452.001h-0.007c-5.523,0-9.997,4.477-9.997,10s4.481,10,10.004,10s10-4.477,10-10    S225.289,452.001,219.766,452.001z"/>
		<path d="M259.762,452.001c-5.523,0-10,4.477-10,10s4.477,10,10,10h32.48c5.523,0,10-4.477,10-10s-4.477-10-10-10H259.762z"/>
	</g>
</g>















</svg>
